<svg width="24" height="24" role="img" viewBox="0 0 24 24" fill="none" xmlns="http://www.w3.org/2000/svg">
<path d="M16.4637 7.53103C16.4637 5.26339 19.4378 5.37816 19.4458 7.53103V11.978C19.9625 19.3449 17.4625 21.3449 14.1009 21.86C10.7393 22.3751 8.46252 21.3449 6.96252 19.3449C6.96252 19.3449 4.96257 16.3449 3.46254 13.8449C1.9625 11.3449 4.46253 9.84489 5.96258 11.3449L7.44229 12.9093C7.44229 12.9093 7.44229 7.62788 7.44229 5.57561C7.44229 3.52335 10.4861 3.54435 10.4836 5.57561M16.4637 7.53103V5.57561C16.4732 3.50136 13.4384 3.50719 13.4255 5.57561M16.4637 7.53103V11.8449M10.4836 5.57561V3.34489C10.4616 1.58383 13.4025 1.51986 13.4255 3.34489V5.57561M10.4836 5.57561L10.4625 11.8449M13.4255 5.57561L13.4625 11.8449" stroke="current" stroke-width="2" stroke-linecap="round" stroke-linejoin="round"/>
</svg>
