<svg width="24" height="24" role="img" viewBox="0 0 24 24" fill="none" xmlns="http://www.w3.org/2000/svg">
<path d="M3.65563 16.3369L14.2927 5.69984L18.3002 9.70734L7.66312 20.3444C7.31123 20.6963 6.89459 20.934 6.45264 21.0205C5.86217 21.136 5.0912 21.2512 4.39195 21.25C4.04254 21.2494 3.73674 21.2195 3.49242 21.1585C3.24309 21.0963 3.11093 21.015 3.04796 20.952C2.98499 20.8891 2.90372 20.7569 2.84149 20.5076C2.78052 20.2633 2.75063 19.9575 2.75001 19.6081C2.74877 18.9088 2.86401 18.1378 2.97954 17.5474C3.066 17.1054 3.30373 16.6888 3.65563 16.3369ZM19.3608 8.64668L15.3533 4.63918L16.4125 3.57998C17.5192 2.47334 19.3134 2.47334 20.42 3.57998C21.5267 4.68662 21.5267 6.48084 20.42 7.58748L19.3608 8.64668Z" fill="current" stroke="current" stroke-width="2"/>
</svg>
