<svg width="21" height="21" viewBox="0 0 21 21" fill="none" xmlns="http://www.w3.org/2000/svg">
<path d="M13.7561 3.42529C15.0398 2.14159 16.6171 2.27397 17.6716 3.32844C18.726 4.38292 18.8584 5.96017 17.5747 7.24388L16.9475 7.87108C16.7437 8.07485 16.4429 8.10434 16.2755 7.93697L13.063 4.72451C12.8957 4.55713 12.9252 4.25626 13.1289 4.0525L13.7561 3.42529Z" />
<path d="M12.76 4.42144L4.1594 13.022C3.62032 13.5611 3.22578 14.2252 3.03757 14.9208C1.99092 18.7887 2.21131 19.0091 6.07923 17.9624C6.77476 17.7742 7.4389 17.3797 7.97798 16.8406L16.5786 8.24003M13.063 4.72451L16.2755 7.93697C16.4429 8.10434 16.7437 8.07485 16.9475 7.87108L17.5747 7.24388C18.8584 5.96017 18.726 4.38292 17.6716 3.32844C16.6171 2.27397 15.0398 2.14159 13.7561 3.42529L13.1289 4.0525C12.9252 4.25626 12.8957 4.55713 13.063 4.72451Z" fill="none" stroke="current" stroke-width="1.5"/>
</svg>
